<svg version="1.0" width="432.513" height="125.0439" xml:space="preserve" xmlns="http://www.w3.org/2000/svg" xmlns:svg="http://www.w3.org/2000/svg">
	<path d="M161.8,81.98c1.2,0.26,2.6,0.26,4.7,0.26,5.4,0,10.2-2.34,10.2-8.49,0-5.90-4.8-8.24-10.8-8.24h-4.1v16.47zm0-25.78h3.7c5.9,0,9-2.97,9-7.47,0-4.59-2.9-7.02-7.9-7.02-2.5,0-3.9,0.18-4.8,0.45v14.04zm-12.4-24.47c3.4,0,9.9-0.01,16.2-0.01,7.7,0,12.1-0.16,16,2.67,3.8,2.78,5.8,6.99,5.8,12.57,0,5.31-1.2,11.19-8.2,13.71v0.18c6.3,0.76,11.1,6.83,11.1,14.66,0,5.58-1.9,10.53-5.4,13.50-4,3.50-8.2,4.45-21.9,4.45-6.2,0-10.8,0.01-13.6,0.01v-61.74m94.2,39.15c0-7.49-0.9-12.51-6.3-12.51-5.5,0-6.6,4.90-6.6,12.59,0,7.95,2,12.51,6.5,12.51,4.5,0,6.4-3.97,6.4-12.59zm-6.4,22.62c-13.7,0-18.1-8.35-18.1-22.39,0-14.03,5.1-23,18.7-23,13.7,0,17.9,9.14,17.9,22.29,0,15.81-4.8,23.10-18.5,23.10m47.6-26.19c0-3.69-0.8-8.58-5.4-8.58-4.5,0-6.3,4.52-6.3,12.56,0,6.59,1.3,11.75,6.3,11.75,4.9,0,5.4-6.85,5.4-9.22v-6.51zm12.3,19.79c0,8.49,0.2,15.60-4,20.10-4,4.1-10.6,4.8-16,4.8-4.4,0-10.1-0.9-13.3-2.7-1-0.6-1-1.8-0.6-3.1,0.4-1.2,1.5-5.1,1.8-5.8,0.4-1.23,1.8-1.29,2.2-1.07,2.4,1.07,5.7,1.57,9.3,1.57,5.4,0,8.2-0.5,8.2-8.77v-2.80h-0.2c-2.3,3-4.4,4.17-8.6,4.17-11.5,0-15.3-9.20-15.3-21.85,0-14.27,3.9-23.31,16.5-23.31,5,0,7.7,2.54,9.5,6.15l0.9-4.11c0,0,0.2-1.04,1.8-1.04h5.6c1.7,0,2.4,0.40,2.5,1.22,0,0.83-0.3,6.27-0.3,11.96v24.58m30.5-19.79c0-3.69-0.8-8.58-5.4-8.58-4.5,0-6.3,4.52-6.3,12.56,0,6.59,1.3,11.75,6.3,11.75,5,0,5.4-6.85,5.4-9.22v-6.51zm12.3,19.79c0,8.49,0.2,15.60-4,20.10-3.9,4.1-10.6,4.8-15.9,4.8-4.5,0-10.2-0.9-13.4-2.7-0.9-0.6-0.9-1.8-0.5-3.1,0.3-1.2,1.5-5.1,1.7-5.8,0.4-1.23,1.8-1.29,2.3-1.07,2.3,1.07,5.7,1.57,9.2,1.57,5.4,0,8.2-0.5,8.2-8.77v-2.80h-0.2c-2.2,3-4.4,4.17-8.5,4.17-11.6,0-15.4-9.20-15.4-21.85,0-14.27,3.9-23.31,16.5-23.31,5,0,7.7,2.54,9.6,6.15l0.8-4.11c0,0,0.2-1.04,1.8-1.04h5.7c1.6,0,2.3,0.40,2.4,1.22,0,0.83-0.3,6.27-0.3,11.96v24.58m29.5-21.12c0-3.03-0.2-8.33-5.1-8.33-4.7,0-5.5,4.96-5.7,8.33h10.8zm-10.4,8.34c0.4,5.66,2.9,9.15,8.3,9.15,3.5,0,3.7-0.19,8.6-1.91,0.8-0.28,2.3-0.48,2.7,0.61,0.5,1.27,1.7,5.02,2.1,6,0.6,1.68-1.6,2.55-1.6,2.55-3.8,1.86-8.4,2.74-13.5,2.74-12.7,0-19.9-8.48-19.9-22.09,0-10.96,4.2-23.07,18.9-23.07,14.1,0,16.6,10.87,16.6,21.56,0,2.30-0.3,4.55-2.4,4.55l-19.8-0.09m-148,7.62c4.8,0,5,0,6.1,7.90,0.3,2.11-1.5,3.65-3.9,3.65h-9.8c-3.3,0-6.4-3.57-6.5-6.86v-2.68v-51.01c0-0.69,0.5-1.25,1.2-1.25h9.2c0.7,0,1.3,0.56,1.3,1.25v46.89c0,1.73,0.2,2.11,2.4,2.11m199.5-33.82c-1.8-0.02-6.5-0.67-11,5.10h-0.3l-0.5-3.91-10.6,0.11v1.51v41.31c0,0.69,0.5,1.25,1.2,1.25h10.2c0.7,0,1.3-0.56,1.3-1.25l-0.1-21.76c0-1.15,0.1-2.73,0.2-3.63,0.4-5.40,1.8-7.40,6.4-7.40,1.5,0,4.2,0.77,5.4,1.16,1.3,0.39,2-1.04,2-1.04,0,0,1-5.82,1.4-8.04,0.3-2.22-3.8-3.39-5.6-3.41m10.9,3.16v-4.86h-1.4v-1.16h4.1v1.16h-1.5v4.86h-1.2m11.1,0h-1.5v-3.99l-1,2.57h-1l-1.1-2.57v3.99h-1.3v-6.02h1.6l1.3,2.97,1.3-2.97h1.7v6.02" fill="#036"/>
	<path d="M125,106.3c0,10.4-8.4,18.7-18.7,18.7h-87.55c-10.36,0-18.75-8.3-18.75-18.7v-87.55c0-10.35,8.395-18.75,18.75-18.75h87.55c10.3,0,18.7,8.396,18.7,18.75v87.55" fill="#F60"/>
	<path d="M49.12,23.58c-13.80,0-24.99,11.19-25,25v27.43c0,13.81,11.20,24.99,25,24.99h26.91c13.81,0,24.97-11.18,24.97-24.99v-17.72c0-2.76-2.21-5-4.97-5h-4.22h-0.09c-2.64,0-4.79-2.06-4.97-4.65l-0.03-0.06c0-13.81-11.19-25-25-25h-12.60zm-0.62,20.28h14.16c2.65,0,4.81,2.15,4.81,4.81,0,2.65-2.16,4.81-4.81,4.81h-14.16c-2.65,0-4.81-2.16-4.81-4.81,0-2.66,2.16-4.81,4.81-4.81zm-0.03,28.15h28.41c2.51,0,4.56,2.02,4.56,4.53,0,2.51-2.05,4.57-4.56,4.57h-28.41c-2.51,0-4.53-2.06-4.53-4.57,0-2.51,2.02-4.53,4.53-4.53z" fill="#FFF"/>
</svg>